<?xml version="1.0" standalone="no"?><!DOCTYPE svg PUBLIC "-//W3C//DTD SVG 1.1//EN" "http://www.w3.org/Graphics/SVG/1.1/DTD/svg11.dtd"><svg t="1730009660167" class="icon" viewBox="0 0 1024 1024" version="1.1" xmlns="http://www.w3.org/2000/svg" p-id="8140" xmlns:xlink="http://www.w3.org/1999/xlink" width="200" height="200"><path d="M512 925c228.094 0 413-184.906 413-413S740.094 99 512 99 99 283.906 99 512s184.906 413 413 413z m0 60C250.77 985 39 773.23 39 512S250.77 39 512 39s473 211.77 473 473-211.77 473-473 473z" fill="#1296db" p-id="8141"></path><path d="M231 552.5c-22.091 0-40-17.91-40-40 0-22.092 17.909-40 40-40h562c22.091 0 40 17.908 40 40 0 22.09-17.909 40-40 40H231z" fill="#1296db" p-id="8142"></path><path d="M472 231.5c0-22.092 17.909-40 40-40s40 17.908 40 40v562c0 22.09-17.909 40-40 40s-40-17.91-40-40v-562z" fill="#1296db" p-id="8143"></path></svg>