<?xml version="1.0" standalone="no"?><!DOCTYPE svg PUBLIC "-//W3C//DTD SVG 1.1//EN" "http://www.w3.org/Graphics/SVG/1.1/DTD/svg11.dtd"><svg t="1730106847609" class="icon" viewBox="0 0 1024 1024" version="1.1" xmlns="http://www.w3.org/2000/svg" p-id="5399" xmlns:xlink="http://www.w3.org/1999/xlink" width="200" height="200"><path d="M511.925011 1023.850022c-282.278651 0-511.925011-229.64636-511.925011-511.925011s229.64636-511.925011 511.925011-511.925011 511.925011 229.656359 511.925011 511.925011-229.64636 511.925011-511.925011 511.925011z m0-963.85881c-249.193497 0-451.933799 202.740302-451.933799 451.933799s202.730303 451.933799 451.933799 451.933799 451.933799-202.730303 451.933799-451.933799S761.118508 60.001211 511.925011 60.001211z" fill="#1296db" p-id="5400"></path><path d="M511.925011 451.893805a29.995606 29.995606 0 0 1-21.216892-8.80871L343.889626 296.286599a29.995606 29.995606 0 0 1 42.423785-42.433784L511.925011 379.464414l125.6116-125.611599a29.995606 29.995606 0 0 1 42.433784 42.433784L533.141903 443.085095a29.995606 29.995606 0 0 1-21.216892 8.80871z" fill="#1296db" p-id="5401"></path><path d="M658.753503 505.425963H365.106518a29.995606 29.995606 0 1 1 0-59.991212h293.646985a29.995606 29.995606 0 0 1 0 59.991212zM658.753503 662.432964H365.106518a29.995606 29.995606 0 1 1 0-59.991212h293.646985a29.995606 29.995606 0 0 1 0 59.991212z" fill="#1296db" p-id="5402"></path><path d="M511.925011 778.78592a29.995606 29.995606 0 0 1-29.995606-29.995606V421.898199a29.995606 29.995606 0 1 1 59.991212 0v326.892115a29.995606 29.995606 0 0 1-29.995606 29.995606z" fill="#1296db" p-id="5403"></path></svg>