<?xml version="1.0" standalone="no"?><!DOCTYPE svg PUBLIC "-//W3C//DTD SVG 1.1//EN" "http://www.w3.org/Graphics/SVG/1.1/DTD/svg11.dtd"><svg t="1730010209063" class="icon" viewBox="0 0 1024 1024" version="1.1" xmlns="http://www.w3.org/2000/svg" p-id="9851" xmlns:xlink="http://www.w3.org/1999/xlink" width="200" height="200"><path d="M953.37931 512C953.37931 268.232934 755.767066 70.62069 512 70.62069 268.232934 70.62069 70.62069 268.232934 70.62069 512 70.62069 755.767066 268.232934 953.37931 512 953.37931 755.767066 953.37931 953.37931 755.767066 953.37931 512ZM0 512C0 229.230204 229.230204 0 512 0 794.769796 0 1024 229.230204 1024 512 1024 794.769796 794.769796 1024 512 1024 229.230204 1024 0 794.769796 0 512ZM229.517241 512C229.517241 492.498644 245.217315 476.689655 264.858359 476.689655L759.141641 476.689655C778.659999 476.689655 794.482759 492.362681 794.482759 512 794.482759 531.501356 778.782685 547.310345 759.141641 547.310345L264.858359 547.310345C245.340001 547.310345 229.517241 531.637319 229.517241 512Z" fill="#d81e06" p-id="9852"></path></svg>