<?xml version="1.0" standalone="no"?><!DOCTYPE svg PUBLIC "-//W3C//DTD SVG 1.1//EN" "http://www.w3.org/Graphics/SVG/1.1/DTD/svg11.dtd"><svg t="1730115070915" class="icon" viewBox="0 0 1024 1024" version="1.1" xmlns="http://www.w3.org/2000/svg" p-id="5997" xmlns:xlink="http://www.w3.org/1999/xlink" width="200" height="200"><path d="M718.8 814h36.3c21 0 38.1-12.6 38.1-28.2s-17.1-28.2-38.1-28.2h-36.3c-21 0-38.1 12.6-38.1 28.2 0.1 15.6 17.1 28.2 38.1 28.2z m0-169.1h36.3c21 0 38.1-12.6 38.1-28.2s-17.1-28.2-38.1-28.2h-36.3c-21 0-38.1 12.6-38.1 28.2 0.1 15.5 17.1 28.2 38.1 28.2z m-225 0h36.3c21 0 38.1-12.6 38.1-28.2s-17.1-28.2-38.1-28.2h-36.3c-21 0-38.1 12.6-38.1 28.2 0.1 15.5 17.1 28.2 38.1 28.2z m-225 0h36.3c21 0 38.1-12.6 38.1-28.2s-17.1-28.2-38.1-28.2h-36.3c-21 0-38.1 12.6-38.1 28.2 0.1 15.5 17.1 28.2 38.1 28.2z m225 169.1h36.3c21 0 38.1-12.6 38.1-28.2s-17.1-28.2-38.1-28.2h-36.3c-21 0-38.1 12.6-38.1 28.2 0.1 15.6 17.1 28.2 38.1 28.2z m-225 0h36.3c21 0 38.1-12.6 38.1-28.2s-17.1-28.2-38.1-28.2h-36.3c-21 0-38.1 12.6-38.1 28.2 0.1 15.6 17.1 28.2 38.1 28.2z m527.6-620.4h-56.8v-80.2c0.1-0.8 0.1-1.5 0.1-2.3 0-15.3-12.4-27.7-27.6-27.7-15.1 0-27.4 12.2-27.6 27.3v83H342.3v-80.2c0.1-0.8 0.1-1.5 0.1-2.3 0-15.3-12.4-27.7-27.6-27.7-15.1 0-27.4 12.2-27.6 27.3v83h-59.6C136.3 193.6 62 257.9 62 379.2v436.2c0 87.2 66 159.1 150 167.1l584.4 0.8c91.3 0 165.6-75.3 165.6-167.9V361.5c0-92.5-74.3-167.9-165.6-167.9z m109.4 638.3c0 52.3-45.3 94.9-101 94.9H219.3c-55.7 0-101.1-42.6-101.1-94.9V475.7h787.5v356.2z m0-412.6H118.2V345c0-46.5 40.8-94.9 112.5-94.9h56.5v84.7c0.5 14.8 12.6 26.7 27.6 26.7 15.2 0 27.6-12.4 27.6-27.7 0-0.8 0-1.6-0.1-2.3v-81.4h342.2v84.7c0.5 14.8 12.7 26.7 27.6 26.7 15.2 0 27.6-12.4 27.6-27.7 0-0.8 0-1.6-0.1-2.3v-81.3h53.7c55.7 0 117.4 41.2 112.5 94.9v74.2z m0 0" fill="#2E71E6" p-id="5998"></path></svg>